<?xml version="1.0" encoding="utf-8"?>
<!-- Generator: Adobe Illustrator 23.0.0, SVG Export Plug-In . SVG Version: 6.00 Build 0)  -->
<svg version="1.1" id="Layer_1" xmlns="http://www.w3.org/2000/svg" xmlns:xlink="http://www.w3.org/1999/xlink" x="0px" y="0px"
	 viewBox="0 0 612 792" style="enable-background:new 0 0 612 792;" xml:space="preserve">
<path d="M451.1,366.2c-0.8,1-1.9,1.8-2.3,2.9c-3,8.8-9.3,14.7-17.1,19.4c-2.5,1.5-4.9,3.2-7.9,5.2c-0.4-0.6-1.5-1.9-1.4-2.1
	c0.7-0.9,1.8-1.6,2.9-2c9.8-3.9,17.5-10.2,21.5-20.2c2.4-5.9,0.7-11.8-3.8-15.3c-4.8-3.8-10.3-3.8-16.2,0.2c-0.7,0.5-1.3,1-1.9,1.4
	c-8.5-5.4-13.2-6-18.3-1.7c-8.5,7.2-4.6,15.1-0.2,23.8c-6,0-11.3,0-16.5,0c-4.9,0.1-9.8,0.1-14.6,0.5c-0.9,0.1-1.9,2-2.4,3.2
	c-0.7,1.5-0.9,3.3-1.3,4.9c-0.4,0-0.8,0-1.3,0c-1.2-6-2.4-12.1-3.6-18.1c-0.4,0-0.8-0.1-1.2-0.1c-1.2,10-2.3,20-3.5,30
	c-0.5,0-1,0.1-1.5,0.1c-1.1-5.2-2.3-10.4-3.4-15.7c-0.6-2.7-1.2-5-5-4.8c-1.3,0.1-2.7-1.4-4.2-2.3c-6.5,3.7-17.3,3.6-21.1-0.3
	c-3.8,1.2-7.5,2.4-12,3.8c-0.4,1.8-1,4.5-1.6,7.2c-0.6,2.7-1.1,5.4-1.7,8.1c-0.5,0-1,0-1.5,0c-0.5-10.2-0.9-20.5-1.4-30.7
	c-0.4,0-0.8-0.1-1.2-0.1c-1.2,9.7-2.4,19.3-3.6,29c-0.5,0-1,0-1.5,0c-0.4-3.3-0.9-6.6-1.3-9.9c-0.3-3.2-1.5-4.5-5.2-5
	c-5.5-0.7-10.5-0.9-16.2-0.1c-10.8,1.4-10.9,0.6-19.3-5c-1.5,5.2-5.3,5.9-10,5.6c-1.1-0.1-2.7,1.6-3.4,2.8c-1.3,2-2.1,4.4-3.1,6.6
	c-0.5,0-1-0.1-1.4-0.1c-0.8-5.1-1.6-10.1-2.4-15.2c-0.8-5.2-1.5-10.5-3.4-15.8c-1.6,11.7-3.2,23.4-4.9,35.1c-0.5,0-1,0-1.5,0
	c-0.8-3.1-1.8-6.2-2.2-9.3c-0.4-3.4-2.2-3.9-5.3-4.4c-8.9-1.3-17.8,0.8-26.6,0.1c-1.8-0.1-3.6-0.5-5.4-0.7c0-0.3,0-0.7,0-1
	c4.7,0,9.3,0.2,14-0.1c2.6-0.1,5.1-1.1,7.7-1.5c1.4-0.2,2.8,0.2,4.2,0.4c1.6,0.3,3.2,1.1,4.7,1c4.9-0.4,8.6,0.5,8.5,6.9
	c0.4-0.1,0.9-0.3,1.3-0.4c1.7-12.5,3.4-24.9,5.1-37.4c0.5,0,1-0.1,1.5-0.1c1.8,12.2,3.7,24.3,5.5,36.5c2.2-4.8,5.7-5.2,10-5.7
	c2.6-0.3,4.9-3.5,7.8-5.8c3.9,6.4,11,7.7,17.8,5.8c6.1-1.6,11.5-1.6,17.2,0.3c2.4,0.8,4.8,1.6,7.5,2.5c1.3-10.6,2.8-22.4,4.3-34.2
	c0.5,0,1,0.1,1.5,0.1c0.5,12.1,1,24.2,1.5,36.4c0.3,0.1,0.6,0.1,0.9,0.2c0.6-1.4,1.1-2.8,1.5-3.7c4.8-1.6,9.3-3,13.9-4.5
	c4.4,4.8,11.5,4.8,20.4,0.3c3.3,1.2,5.8,1.9,8,3.1c1.1,0.6,2,2,2.4,3.3c0.9,2.8,1.4,5.7,3.2,8.5c1.2-10.1,2.4-20.2,3.6-30.3
	c0.5,0,0.9-0.1,1.4-0.1c1.4,6.8,2.7,13.6,4.1,20.5c10.6-5.3,21.7-1,32.8-2.3c-1.1-2.7-2-4.8-2.7-7c-1.9-6-0.2-12.4,4.2-15.9
	c5.2-4.1,10.8-5.1,16.7-1.5c2.2,1.4,3.8,1.5,6.2,0.1c7.9-4.6,16.5-1.7,20.7,6.4c0.6,1.2,1.7,2.1,2.6,3.1
	C451.1,362.8,451.1,364.5,451.1,366.2z"/>
</svg>
